<?xml version="1.0" encoding="utf-8"?>
<!-- Generator: Adobe Illustrator 25.2.0, SVG Export Plug-In . SVG Version: 6.00 Build 0)  -->
<svg version="1.1" id="Calque_1" xmlns="http://www.w3.org/2000/svg" xmlns:xlink="http://www.w3.org/1999/xlink" x="0px" y="0px"
	 viewBox="0 0 207.9 190.5" style="enable-background:new 0 0 207.9 190.5;" xml:space="preserve">
<style type="text/css">
	.st0{fill:#132C45;}
</style>
<g>
	<g>
		<g>
			<path class="st0" d="M7.5,67.1l-1.9,0.7l0.5-1.1l1.7-0.4L7.5,67.1z M13.9,68.2L12.7,71l1.9,1.8l-0.5,1l-6.2-6.1l0.5-1.1l8.6,1
				l-0.5,1L13.9,68.2z M13.1,68.1l-1.3-0.2c-1-0.1-1.9-0.3-2.9-0.4l0,0c0.7,0.6,1.5,1.3,2.2,1.9l1,0.9L13.1,68.1z"/>
			<path class="st0" d="M13.3,57.2l0.5-0.9l6.3,3.7l1.9-3.1l0.8,0.5l-2.4,4.1L13.3,57.2z"/>
			<path class="st0" d="M18.8,52.6c0-0.8-0.2-1.3-0.8-1.7c0,0,0,0.1,0,0.1c-0.2,0.3-0.6,0.4-0.9,0.2c-0.4-0.2-0.4-0.6-0.2-0.9
				c0.3-0.4,0.8-0.4,1.4-0.1c0.8,0.5,1.2,1.3,1.1,2.4L18.8,52.6z"/>
			<path class="st0" d="M20,46.6l2.8-3.9l0.7,0.5l-2.2,3l2.1,1.5l1.9-2.6l0.7,0.5l-1.9,2.6l2.4,1.8l2.3-3.1l0.7,0.5l-2.9,4L20,46.6z
				"/>
			<path class="st0" d="M32.1,40.3l-2,2.3l1.4,2.2l-0.7,0.8l-4.5-7.5l0.8-0.9l8.1,3.1l-0.7,0.9L32.1,40.3z M31.3,40l-1.2-0.5
				c-0.9-0.4-1.8-0.7-2.7-1.2l0,0c0.6,0.8,1.1,1.6,1.6,2.4l0.7,1.1L31.3,40z"/>
			<path class="st0" d="M31.1,32.8l0.8-0.8l3.5,3.4c1.4,1.4,2.5,1.2,3.2,0.5c0.8-0.8,1-1.9-0.5-3.2l-3.5-3.4l0.7-0.7l3.4,3.4
				c1.9,1.9,1.6,3.4,0.4,4.6c-1.2,1.2-2.8,1.5-4.6-0.4L31.1,32.8z"/>
			<path class="st0" d="M42.2,22.5l1.6-1.3c2-1.6,4-1.3,5.6,0.8c1.6,2.1,1.5,4.1-0.5,5.7L47.2,29L42.2,22.5z M48.3,27.1
				c1.5-1.2,1.6-2.8,0.3-4.4c-1.3-1.6-2.7-2-4.3-0.8l-0.7,0.6l4,5.2L48.3,27.1z"/>
			<path class="st0" d="M50.3,16.5l4.1-2.6l0.5,0.7l-3.2,2l1.4,2.2l2.7-1.7l0.5,0.7l-2.7,1.7l1.6,2.5l3.3-2.1l0.5,0.7l-4.2,2.7
				L50.3,16.5z"/>
			<path class="st0" d="M64.8,15.5c0.8,0.3,1.7,0.3,2.5,0c1-0.5,1.4-1.2,1-2c-0.4-0.8-1-0.7-1.9-0.7l-1.3,0c-0.8,0-1.9-0.1-2.4-1.2
				c-0.5-1.1,0.1-2.5,1.5-3.1c0.9-0.4,1.9-0.4,2.7-0.1l-0.2,0.9C66,9,65.3,9,64.6,9.3c-0.9,0.4-1.2,1.1-0.9,1.8
				c0.3,0.7,1.1,0.7,1.8,0.7l1.3,0c1.1,0,2,0.2,2.5,1.3c0.5,1.2,0,2.6-1.6,3.3c-1.1,0.5-2.2,0.5-3.2,0.1L64.8,15.5z"/>
			<path class="st0" d="M71.3,10c-0.8-2.5,0-4.5,2-5.2c2-0.7,3.9,0.4,4.7,2.9c0.9,2.5,0,4.6-2,5.2C74.1,13.6,72.2,12.5,71.3,10z
				 M77.1,8c-0.7-1.9-2-2.8-3.4-2.3c-1.4,0.5-1.9,2-1.3,3.9c0.7,1.9,2,2.9,3.4,2.4C77.2,11.6,77.7,10,77.1,8z"/>
			<path class="st0" d="M80.8,2.8l1-0.2l1,4.7c0.4,1.9,1.4,2.4,2.4,2.1c1.1-0.2,1.8-1,1.4-3l-1-4.7l1-0.2l1,4.7
				c0.5,2.6-0.5,3.7-2.2,4.1c-1.7,0.4-3.1-0.3-3.7-2.8L80.8,2.8z"/>
			<path class="st0" d="M96.7,8.6l-2.3-3.3l-1.5,0.1l0.3,3.5L92.1,9l-0.8-8.2l2.6-0.3c1.7-0.2,3,0.3,3.1,2c0.1,1.3-0.5,2.1-1.6,2.5
				l2.5,3.4L96.7,8.6z M92.7,4.6l1.4-0.1c1.3-0.1,2-0.7,1.9-1.8c-0.1-1.1-0.9-1.4-2.1-1.3l-1.4,0.1L92.7,4.6z"/>
			<path class="st0" d="M104.3,0c1,0,1.8,0.5,2.3,1.1L106,1.7c-0.4-0.5-1-0.8-1.7-0.8c-1.6,0-2.7,1.2-2.7,3.3c0,2.1,0.9,3.4,2.5,3.4
				c0.8,0,1.4-0.3,1.9-0.9l0.6,0.7c-0.7,0.7-1.5,1.2-2.6,1.1c-2.1,0-3.6-1.7-3.6-4.3C100.6,1.5,102.2,0,104.3,0z"/>
			<path class="st0" d="M110.7,0.5l4.8,0.6l-0.1,0.9l-3.7-0.4L111.3,4l3.1,0.4l-0.1,0.9l-3.1-0.4l-0.3,3l3.8,0.4l-0.1,0.9l-4.9-0.6
				L110.7,0.5z"/>
			<path class="st0" d="M124.2,2.7l2,0.6c2.5,0.7,3.4,2.5,2.7,5c-0.7,2.5-2.5,3.6-4.9,2.9l-2.1-0.6L124.2,2.7z M124.1,10.4
				c1.9,0.5,3.2-0.4,3.7-2.4c0.6-2-0.1-3.4-1.9-3.9L125,3.8l-1.8,6.3L124.1,10.4z"/>
			<path class="st0" d="M133.9,5.7l4.5,1.8l-0.3,0.8l-3.5-1.4l-0.9,2.4l2.9,1.2l-0.3,0.8l-2.9-1.2l-1.1,2.8l3.6,1.4l-0.3,0.8
				l-4.6-1.8L133.9,5.7z"/>
			<path class="st0" d="M139.3,15c0.3,0.8,0.8,1.6,1.6,2c1,0.5,1.8,0.3,2.2-0.4c0.4-0.7,0-1.3-0.6-1.9l-0.8-1
				c-0.5-0.6-1.1-1.6-0.5-2.7c0.6-1.1,2-1.4,3.3-0.7c0.9,0.5,1.5,1.2,1.7,2l-0.8,0.3c-0.2-0.7-0.7-1.2-1.3-1.6
				c-0.8-0.4-1.6-0.3-1.9,0.4c-0.4,0.7,0.2,1.3,0.6,1.8l0.8,1c0.7,0.8,1.1,1.7,0.5,2.7c-0.6,1.2-2,1.6-3.6,0.8c-1-0.5-1.7-1.4-2-2.4
				L139.3,15z"/>
			<path class="st0" d="M154.2,16l2.1,1.5c1.5,1.1,2.2,2.3,1.1,3.7c-1,1.4-2.5,1.4-4,0.3l-1.2-0.9l-1.9,2.7l-0.9-0.6L154.2,16z
				 M153.8,20.8c1.2,0.8,2.1,0.8,2.7-0.2c0.7-1,0.3-1.7-0.9-2.5l-1.1-0.8l-1.9,2.7L153.8,20.8z"/>
			<path class="st0" d="M159.6,26.3l1.3-5.5l0.9,0.7l-0.7,2.5c-0.2,0.6-0.3,1.2-0.5,1.9l0,0c0.6-0.3,1.2-0.6,1.8-0.9l2.3-1.1
				l0.8,0.7l-5.1,2.3l-2,2.5l-0.8-0.7L159.6,26.3z"/>
			<path class="st0" d="M165.6,36l1-3.9l-1.1-1l-2.4,2.5l-0.8-0.7l5.7-5.9l1.9,1.8c1.2,1.2,1.7,2.5,0.5,3.7c-0.9,0.9-2,1-3,0.4
				l-1,4.1L165.6,36z M166.1,30.5l1,1c0.9,0.9,1.8,1,2.6,0.3c0.8-0.8,0.5-1.6-0.4-2.5l-1-1L166.1,30.5z"/>
			<path class="st0" d="M174.8,33.8l3.2,3.6l-0.7,0.6l-2.5-2.8l-1.9,1.7l2.1,2.4l-0.7,0.6l-2.1-2.4l-2.2,2l2.6,2.9l-0.7,0.6
				l-3.3-3.7L174.8,33.8z M177.1,35.4l-0.6-0.7l1.8-0.1l0.8,0.9L177.1,35.4z"/>
			<path class="st0" d="M180.6,40.5l0.7,0.9l-2.3,5.5l-0.8,1.8l0,0c0.6-0.5,1.3-1.2,2-1.7l3.4-2.6l0.6,0.8l-6.6,5l-0.7-0.9l2.3-5.5
				l0.8-1.7l0,0c-0.6,0.5-1.3,1.1-2,1.7l-3.4,2.6l-0.6-0.8L180.6,40.5z"/>
			<path class="st0" d="M186.7,48.9l2.6,4l-0.7,0.5l-2-3.1l-2.2,1.4l1.7,2.7l-0.7,0.5l-1.7-2.7l-2.5,1.6l2.1,3.3l-0.7,0.5l-2.7-4.2
				L186.7,48.9z M188.7,50.9l-0.5-0.7l1.8,0.2l0.6,1L188.7,50.9z"/>
			<path class="st0" d="M191.4,56.4l2.3,4.2L193,61l-1.8-3.3l-2.3,1.3l1.5,2.8l-0.8,0.4l-1.5-2.8l-2.6,1.5l1.9,3.4l-0.8,0.4
				l-2.4-4.3L191.4,56.4z"/>
			<path class="st0" d="M189.8,67c-0.3,0.8-0.3,1.7,0.1,2.5c0.5,1,1.2,1.3,2,1c0.8-0.4,0.7-1,0.7-1.9l-0.1-1.3
				c0-0.8,0.1-1.9,1.2-2.4c1.1-0.5,2.5,0.1,3.1,1.4c0.4,0.9,0.4,1.9,0.1,2.7l-0.9-0.2c0.2-0.7,0.2-1.4-0.1-2
				c-0.4-0.9-1.1-1.2-1.8-0.9c-0.7,0.3-0.7,1.1-0.6,1.8l0.1,1.3c0,1.1-0.1,2-1.2,2.5c-1.2,0.6-2.6,0-3.3-1.6
				c-0.5-1.1-0.5-2.2-0.2-3.2L189.8,67z"/>
		</g>
	</g>
	<g>
		<path class="st0" d="M20.3,177.9v1.5c0,2-1,3.1-3,3.1H16v5.1h-1.4v-12.9h2.8C19.4,174.8,20.3,176,20.3,177.9z M18.9,179.6v-1.7
			c0-1.2-0.4-1.8-1.5-1.8H16v5.2h1.3C18.4,181.3,18.9,180.8,18.9,179.6z"/>
		<path class="st0" d="M28.6,177.7v1c0,1.4-0.5,2.3-1.6,2.6c1.2,0.3,1.6,1.3,1.6,2.7v2c0,0.6,0,1.1,0.3,1.5h-1.5
			c-0.2-0.4-0.2-0.7-0.2-1.6v-2c0-1.5-0.7-1.9-1.9-1.9h-1v5.5h-1.4v-12.9h2.9C27.7,174.8,28.6,175.8,28.6,177.7z M27.2,179.1v-1.2
			c0-1.2-0.4-1.8-1.5-1.8h-1.4v4.8h1.1C26.5,180.9,27.2,180.5,27.2,179.1z"/>
		<path class="st0" d="M36.1,181.8h-3.1v4.6h3.9v1.3h-5.3v-12.9h5.3v1.3h-3.9v4.4h3.1V181.8z"/>
		<path class="st0" d="M42.9,187.6l-2.1-10.2v10.3h-1.3v-12.9h2l2.1,10.3l2-10.3h2v12.9h-1.4v-10.4l-2,10.3H42.9z"/>
		<path class="st0" d="M51.9,187.7h-1.4v-12.9h1.4V187.7z"/>
		<path class="st0" d="M57.6,186.5c1,0,1.5-0.7,1.5-1.9v-9.8h1.3v9.8c0,1.9-0.9,3.3-2.9,3.3c-2,0-2.9-1.3-2.9-3.3v-9.8h1.4v9.8
			C56.1,185.8,56.6,186.5,57.6,186.5z"/>
		<path class="st0" d="M66.6,187.6l-2.1-10.2v10.3h-1.3v-12.9h2l2.1,10.3l2-10.3h2v12.9h-1.4v-10.4l-2,10.3H66.6z"/>
		<path class="st0" d="M81.9,187.6l-2.1-10.2v10.3h-1.3v-12.9h2l2.1,10.3l2-10.3h2v12.9h-1.4v-10.4l-2,10.3H81.9z"/>
		<path class="st0" d="M91,187.7h-1.4v-12.9H91V187.7z"/>
		<path class="st0" d="M94.9,187.7h-1.4l2.6-6.6l-2.4-6.2h1.5l2,5.1l2-5.1h1.3l-2.4,6.2l2.6,6.6h-1.5l-2.1-5.6L94.9,187.7z"/>
		<path class="st0" d="M107.8,181.8h-3.1v4.6h3.9v1.3h-5.3v-12.9h5.3v1.3h-3.9v4.4h3.1V181.8z"/>
		<path class="st0" d="M116.9,177.7v1c0,1.4-0.5,2.3-1.6,2.6c1.2,0.3,1.6,1.3,1.6,2.7v2c0,0.6,0,1.1,0.3,1.5h-1.5
			c-0.2-0.4-0.2-0.7-0.2-1.6v-2c0-1.5-0.7-1.9-1.9-1.9h-1v5.5h-1.4v-12.9h2.9C116.1,174.8,116.9,175.8,116.9,177.7z M115.5,179.1
			v-1.2c0-1.2-0.4-1.8-1.5-1.8h-1.4v4.8h1.1C114.8,180.9,115.5,180.5,115.5,179.1z"/>
		<path class="st0" d="M125.4,177.9v0.3H124v-0.4c0-1.2-0.4-1.8-1.5-1.8s-1.5,0.7-1.5,1.8c0,2.9,4.3,3.2,4.3,6.8
			c0,1.9-0.9,3.2-2.9,3.2c-2,0-2.9-1.3-2.9-3.2v-0.7h1.3v0.8c0,1.2,0.5,1.8,1.5,1.8c1,0,1.5-0.7,1.5-1.8c0-2.9-4.3-3.1-4.3-6.8
			c0-2,0.9-3.2,2.9-3.2C124.5,174.7,125.4,175.9,125.4,177.9z"/>
		<path class="st0" d="M136.7,182.1h-3v5.6h-1.4v-12.9h5.1v1.3h-3.7v4.7h3V182.1z"/>
		<path class="st0" d="M145.7,177.7v1c0,1.4-0.5,2.3-1.6,2.6c1.2,0.3,1.6,1.3,1.6,2.7v2c0,0.6,0,1.1,0.3,1.5h-1.5
			c-0.2-0.4-0.2-0.7-0.2-1.6v-2c0-1.5-0.7-1.9-1.9-1.9h-1v5.5h-1.4v-12.9h2.9C144.8,174.8,145.7,175.8,145.7,177.7z M144.3,179.1
			v-1.2c0-1.2-0.4-1.8-1.5-1.8h-1.4v4.8h1.1C143.6,180.9,144.3,180.5,144.3,179.1z"/>
		<path class="st0" d="M149.5,187.7h-1.3l2.5-12.9h2.1l2.5,12.9h-1.4l-0.5-2.6H150L149.5,187.7z M153.1,183.8l-1.5-7.4l-1.4,7.4
			H153.1z"/>
		<path class="st0" d="M157.7,187.7v-12.9h1.8l3,9.3v-9.3h1.3v12.9h-1.5l-3.3-10.4v10.4H157.7z"/>
		<path class="st0" d="M172.3,177.9v1.2h-1.4v-1.2c0-1.2-0.5-1.9-1.5-1.9c-1,0-1.5,0.7-1.5,1.9v6.8c0,1.2,0.5,1.9,1.5,1.9
			c1,0,1.5-0.7,1.5-1.9V183h1.4v1.6c0,1.8-0.8,3.1-2.6,3.2v0.6c0.9,0,1.4,0.3,1.4,0.9c0,0.7-0.6,1.2-1.7,1.2c-1.1,0-1.7-0.4-1.7-1.1
			v-0.1h0.9v0.1c0,0.3,0.3,0.5,0.8,0.5c0.5,0,0.8-0.2,0.8-0.6c0-0.3-0.3-0.6-0.9-0.6H169v-0.9c-1.7-0.1-2.5-1.4-2.5-3.2v-6.7
			c0-1.9,0.9-3.2,2.9-3.2C171.4,174.7,172.3,175.9,172.3,177.9z"/>
		<path class="st0" d="M175.9,187.7h-1.3l2.5-12.9h2.1l2.5,12.9h-1.4l-0.5-2.6h-3.3L175.9,187.7z M179.5,183.8l-1.5-7.4l-1.4,7.4
			H179.5z"/>
		<path class="st0" d="M185.6,187.7h-1.4v-12.9h1.4V187.7z"/>
		<path class="st0" d="M194,177.9v0.3h-1.4v-0.4c0-1.2-0.4-1.8-1.5-1.8s-1.5,0.7-1.5,1.8c0,2.9,4.3,3.2,4.3,6.8
			c0,1.9-0.9,3.2-2.9,3.2c-2,0-2.9-1.3-2.9-3.2v-0.7h1.3v0.8c0,1.2,0.5,1.8,1.5,1.8s1.5-0.7,1.5-1.8c0-2.9-4.3-3.1-4.3-6.8
			c0-2,0.9-3.2,2.9-3.2C193.1,174.7,194,175.9,194,177.9z"/>
	</g>
	<g>
		<g>
			<path class="st0" d="M9.7,142.3v20.3H0V98.5h9.7v22.9l11.8-22.9h10.3l-13.2,26.2l15.5,38H22.7l-10.1-26L9.7,142.3z"/>
			<path class="st0" d="M47.7,147.9l-2.3,14.7H35.3l10.9-64.1h13.3l10.7,64.1H60.1l-2.3-14.7H47.7z M52.8,113.2l-3.6,25.3h7.2
				L52.8,113.2z"/>
			<path class="st0" d="M102,146.6c0.1,4.5-1.1,8.3-3.5,11.5c-1.6,2.1-3.8,3.7-6.6,4.6c-1.5,0.5-3.3,0.7-5.4,0.7
				c-3.8,0-6.9-0.9-9.4-2.8c-2.1-1.5-3.7-3.6-4.9-6.3s-1.9-5.7-2.1-9.1l9.2-0.7c0.4,3.7,1.4,6.4,3,8.1c1.2,1.3,2.5,1.9,4,1.8
				c2.1-0.1,3.8-1.1,5.1-3.1c0.6-1,1-2.4,1-4.2c0-2.7-1.2-5.3-3.6-7.9c-1.9-1.8-4.8-4.5-8.6-8.1c-3.2-3.1-5.5-5.9-6.8-8.3
				c-1.4-2.8-2.1-5.8-2.1-9c0-5.8,2-10.3,5.9-13.3c2.4-1.8,5.4-2.7,9-2.7c3.4,0,6.4,0.8,8.8,2.3c1.9,1.2,3.5,2.9,4.6,5
				c1.2,2.1,1.9,4.6,2.1,7.4l-9.3,1.7c-0.3-2.6-1-4.7-2.3-6.1c-0.9-1.1-2.2-1.6-3.8-1.6c-1.8,0-3.1,0.8-4,2.4
				c-0.7,1.3-1.1,2.8-1.1,4.7c0,2.9,1.3,5.9,3.8,8.9c1,1.2,2.4,2.5,4.3,4.1c2.3,1.9,3.7,3.2,4.4,3.9c2.4,2.4,4.2,4.7,5.5,7.1
				c0.6,1.1,1.1,2.1,1.5,3C101.5,142.8,102,144.8,102,146.6z"/>
			<path class="st0" d="M114.3,142.3v20.3h-9.7V98.5h9.7v22.9l11.8-22.9h10.3l-13.2,26.2l15.5,38h-11.4l-10.1-26L114.3,142.3z"/>
			<path class="st0" d="M152.3,147.9l-2.3,14.7h-10.1l10.9-64.1h13.3l10.7,64.1h-10.2l-2.3-14.7H152.3z M157.4,113.2l-3.6,25.3h7.2
				L157.4,113.2z"/>
			<path class="st0" d="M207.9,147.2c0,4.2-1.5,7.8-4.4,10.8c-3,3-6.5,4.5-10.7,4.5h-15.2V98.5h15.2c4.2,0,7.8,1.5,10.8,4.5
				c2.9,3,4.4,6.6,4.4,10.8V147.2z M187.2,153h5.8c1.5,0,2.8-0.6,3.9-1.7c1.1-1.1,1.6-2.4,1.6-3.9v-33.5c0-1.5-0.5-2.8-1.6-3.9
				c-1.1-1.1-2.4-1.6-3.9-1.6h-5.8V153z"/>
		</g>
	</g>
	<g>
		<path class="st0" d="M0.5,84.8l0,0.9h204.1l0-0.9c-6.4-0.3-12.9-0.5-19.4-0.8l-16.1-10.1c0,0,0,0,0,0c0.6-0.2,1.3-0.5,1.9-0.8
			c0,0-3.5-1.6-6.6-5.6c1.4-0.2,3.1-0.6,4.8-1.4c0,0-2.8-1.3-5.4-4.5c1.3-0.2,3-0.6,4.6-1.3c0,0-2.6-1.2-4.9-4.2
			c1.1-0.2,2.5-0.5,3.8-1.1c0,0-4.7-2.2-6.7-8.1c-1.9,5.8-6.7,8.1-6.7,8.1c1.3,0.6,2.7,0.9,3.8,1.1c-2.3,2.9-4.9,4.2-4.9,4.2
			c1.6,0.7,3.3,1.1,4.6,1.3c-1.1,1.3-2.1,2.3-3.1,3c0,0,0,0,0,0l-9.8-6.2l-24.8-17.7l-10.3,7.4l-2.7,1.6l-19-16L67.2,51
			c-0.9-0.7-2.1-1.7-3.3-3.1c1.1-0.2,2.5-0.5,3.8-1.1c0,0-4.7-2.2-6.7-8.1c-1.9,5.8-6.7,8.1-6.7,8.1c1.3,0.6,2.7,0.9,3.8,1.1
			c-2.3,2.9-4.9,4.2-4.9,4.2c1.6,0.7,3.3,1.1,4.6,1.3c-2.6,3.2-5.4,4.5-5.4,4.5c1.7,0.8,3.3,1.2,4.8,1.4c-0.6,0.8-1.3,1.5-1.9,2.1
			l-1.1,1c-1.2,1-2.2,1.7-2.9,2.1c-0.9-0.7-1.9-1.6-2.8-2.8c1.3-0.2,3-0.6,4.6-1.3c0,0-2.6-1.2-4.9-4.2c1.1-0.2,2.5-0.5,3.8-1.1
			c0,0-4.7-2.2-6.7-8.1c-1.9,5.8-6.7,8.1-6.7,8.1c1.3,0.6,2.7,0.9,3.8,1.1c-2.3,2.9-4.9,4.2-4.9,4.2c1.6,0.7,3.3,1.1,4.6,1.3
			c-2.6,3.2-5.4,4.5-5.4,4.5c1.7,0.8,3.3,1.2,4.8,1.4c-3.2,4-6.6,5.6-6.6,5.6c2,0.9,4,1.4,5.7,1.7l-9.6,8.8
			C20.8,84,10.6,84.3,0.5,84.8z M121.4,45.3L143,60.7l21.3,13.4l1.1,0.7l14.4,9c-6.7-0.2-13.5-0.4-20.3-0.6l-9.4-7.1l-11-5.2
			l4.1-2.5l-23.4-17.2l4.5-0.6L121.4,45.3z M87.7,37.4l-0.3,0.2L87.7,37.4L111,56.9l31.6,26c-12-0.2-23.9-0.3-35.8-0.4l-3.5-5.8
			l-10.9-7.4l-8.2-21l8.2,3.2L87.7,37.4z"/>
	</g>
</g>
</svg>
